<?xml version="1.0" encoding="UTF-8"?>
<svg xmlns="http://www.w3.org/2000/svg" xmlns:xlink="http://www.w3.org/1999/xlink" viewBox="0 0 612 792">
  <defs>
    <style>
      .cls-1 {
        fill: url(#linear-gradient);
      }

      .cls-1, .cls-2, .cls-3, .cls-4, .cls-5, .cls-6, .cls-7, .cls-8, .cls-9, .cls-10, .cls-11, .cls-12, .cls-13, .cls-14, .cls-15, .cls-16, .cls-17, .cls-18 {
        stroke-miterlimit: 10;
      }

      .cls-1, .cls-3, .cls-4, .cls-5, .cls-6, .cls-7, .cls-8, .cls-9, .cls-10, .cls-11, .cls-19, .cls-20, .cls-12, .cls-13, .cls-15, .cls-16 {
        stroke: #fff;
      }

      .cls-2 {
        fill: none;
      }

      .cls-2, .cls-14, .cls-17, .cls-18 {
        stroke: #231f20;
      }

      .cls-21, .cls-15, .cls-18 {
        fill: #231f20;
      }

      .cls-3 {
        stroke-width: 3px;
      }

      .cls-3, .cls-16 {
        fill: #fff;
      }

      .cls-4 {
        fill: url(#linear-gradient-5);
      }

      .cls-5 {
        fill: url(#linear-gradient-8);
      }

      .cls-6 {
        fill: url(#linear-gradient-7);
      }

      .cls-7 {
        fill: url(#linear-gradient-4);
      }

      .cls-8 {
        fill: url(#linear-gradient-3);
      }

      .cls-9 {
        fill: url(#linear-gradient-2);
      }

      .cls-10 {
        fill: url(#linear-gradient-9);
      }

      .cls-11 {
        fill: url(#linear-gradient-6);
      }

      .cls-19 {
        fill: url(#linear-gradient-11);
      }

      .cls-19, .cls-20 {
        stroke-linecap: round;
        stroke-linejoin: round;
        stroke-width: .5px;
      }

      .cls-20 {
        fill: url(#linear-gradient-12);
      }

      .cls-12 {
        fill: url(#linear-gradient-14);
      }

      .cls-13 {
        fill: url(#linear-gradient-10);
      }

      .cls-14 {
        fill: #f7941d;
      }

      .cls-22 {
        fill: url(#linear-gradient-13);
      }

      .cls-23 {
        fill: url(#linear-gradient-16);
      }

      .cls-17 {
        fill: url(#linear-gradient-15);
      }
    </style>
    <linearGradient id="linear-gradient" x1="192.88" y1="182.82" x2="368.87" y2="284.42" gradientUnits="userSpaceOnUse">
      <stop offset="0" stop-color="#fff"/>
      <stop offset=".11" stop-color="#ccc"/>
      <stop offset=".22" stop-color="#a09e9e"/>
      <stop offset=".33" stop-color="#797777"/>
      <stop offset=".45" stop-color="#5a5757"/>
      <stop offset=".58" stop-color="#413e3f"/>
      <stop offset=".7" stop-color="#302c2d"/>
      <stop offset=".84" stop-color="#262223"/>
      <stop offset="1" stop-color="#231f20"/>
    </linearGradient>
    <linearGradient id="linear-gradient-2" x1="169.17" y1="127.36" x2="353.86" y2="233.99" gradientTransform="translate(654.56 380.61) rotate(-120) scale(1 -1)" gradientUnits="userSpaceOnUse">
      <stop offset="0" stop-color="#592f05"/>
      <stop offset=".12" stop-color="#6d380b"/>
      <stop offset=".43" stop-color="#a04e1a"/>
      <stop offset=".67" stop-color="#c05b23"/>
      <stop offset=".81" stop-color="#cc6127"/>
      <stop offset="1" stop-color="#c67129"/>
    </linearGradient>
    <linearGradient id="linear-gradient-3" x1="-6.52" y1="365.56" x2="178.17" y2="472.19" gradientTransform="translate(676.05 626.28) rotate(-60) scale(1 -1)" gradientUnits="userSpaceOnUse">
      <stop offset="0" stop-color="#071118"/>
      <stop offset=".28" stop-color="#223747"/>
      <stop offset=".61" stop-color="#3e5f79"/>
      <stop offset=".86" stop-color="#4f7797"/>
      <stop offset="1" stop-color="#5681a3"/>
    </linearGradient>
    <linearGradient id="linear-gradient-4" x1="174.06" y1="419.65" x2="360.37" y2="371.51" gradientUnits="userSpaceOnUse">
      <stop offset="0" stop-color="#0a1016"/>
      <stop offset=".14" stop-color="#17242f"/>
      <stop offset=".3" stop-color="#223644"/>
      <stop offset=".48" stop-color="#2a4254"/>
      <stop offset=".69" stop-color="#2f495d"/>
      <stop offset="1" stop-color="#314c60"/>
    </linearGradient>
    <linearGradient id="linear-gradient-5" x1="10.6" y1="249.08" x2="195.28" y2="355.71" gradientTransform="translate(-126.98 386.63) rotate(60) scale(1 -1)" xlink:href="#linear-gradient"/>
    <linearGradient id="linear-gradient-6" x1=".33" y1="21.42" x2="185.02" y2="128.05" gradientTransform="translate(152.24 109.03) rotate(120) scale(1 -1)" xlink:href="#linear-gradient"/>
    <linearGradient id="linear-gradient-7" x1="361.22" y1="234.95" x2="435.82" y2="364.16" gradientUnits="userSpaceOnUse">
      <stop offset="0" stop-color="#645a4f"/>
      <stop offset="1" stop-color="#7f7e66"/>
    </linearGradient>
    <linearGradient id="linear-gradient-8" x1="314.06" y1="295.25" x2="339.76" y2="441.01" gradientUnits="userSpaceOnUse">
      <stop offset="0" stop-color="#314552"/>
      <stop offset="1" stop-color="#387dab"/>
    </linearGradient>
    <linearGradient id="linear-gradient-9" x1="276.88" y1="279.42" x2="442.55" y2="279.42" gradientUnits="userSpaceOnUse">
      <stop offset="0" stop-color="#88471f"/>
      <stop offset="1" stop-color="#cc6328"/>
    </linearGradient>
    <linearGradient id="linear-gradient-10" x1="279.92" y1="463.52" x2="356.84" y2="330.28" gradientUnits="userSpaceOnUse">
      <stop offset="0" stop-color="#354d5d"/>
      <stop offset="1" stop-color="#3979a4"/>
    </linearGradient>
    <linearGradient id="linear-gradient-11" x1="294.09" y1="145.16" x2="361.37" y2="145.16" gradientUnits="userSpaceOnUse">
      <stop offset="0" stop-color="#88471f"/>
      <stop offset="1" stop-color="#cc6328"/>
    </linearGradient>
    <linearGradient id="linear-gradient-12" x1="250.59" y1="171.77" x2="326.56" y2="171.77" gradientUnits="userSpaceOnUse">
      <stop offset="0" stop-color="#88471f"/>
      <stop offset="1" stop-color="#cc6328"/>
    </linearGradient>
    <linearGradient id="linear-gradient-13" x1="181.4" y1="118.66" x2="371.64" y2="448.17" gradientUnits="userSpaceOnUse">
      <stop offset="0" stop-color="#e9e9ea"/>
      <stop offset=".04" stop-color="#dcdcdd"/>
      <stop offset=".23" stop-color="#a4a3a4"/>
      <stop offset=".41" stop-color="#767475"/>
      <stop offset=".58" stop-color="#524f50"/>
      <stop offset=".75" stop-color="#383435"/>
      <stop offset=".89" stop-color="#282425"/>
      <stop offset="1" stop-color="#231f20"/>
    </linearGradient>
    <linearGradient id="linear-gradient-14" x1="227.47" y1="174.21" x2="360.71" y2="174.21" gradientUnits="userSpaceOnUse">
      <stop offset="0" stop-color="#c86028"/>
      <stop offset="1" stop-color="#8f4921"/>
    </linearGradient>
    <linearGradient id="linear-gradient-15" x1="229.9" y1="68.77" x2="352.26" y2="68.77" gradientUnits="userSpaceOnUse">
      <stop offset="0" stop-color="#395363"/>
      <stop offset="1" stop-color="#547fa0"/>
    </linearGradient>
    <linearGradient id="linear-gradient-16" x1="306.71" y1="111.84" x2="348.38" y2="111.84" xlink:href="#linear-gradient-14"/>
  </defs>
  <g id="Layer_2" data-name="Layer 2">
    <path class="cls-1" d="M238.38,193.5c-11.85-14.09-18.58-31.68-19.68-49.85-1.62,1.58-3.18,3.23-4.66,4.96-3.24,3.76-6.15,7.82-8.67,12.13-.07.11-.14.22-.2.34-.02.03-.03.05-.05.08-1.64,2.83-3.11,5.76-4.42,8.79-.43,1.01-.84,2.03-1.24,3.06-.02.04-.03.07-.04.11-.31.83-.62,1.67-.91,2.51-.24.71-.48,1.43-.7,2.14-.07.24-.15.48-.22.72-.19.64-.38,1.28-.56,1.93-.14.51-.27,1.03-.41,1.55-.11.43-.22.87-.32,1.31-.14.59-.27,1.18-.4,1.77-.16.74-.31,1.48-.45,2.23-.1.48-.19.96-.27,1.45-.03.2-.06.4-.08.6-.02.09-.03.18-.04.27-.02.07-.03.14-.03.22-.04.26-.08.52-.11.78-.01.05-.02.1-.03.15-.01.04-.01.09-.02.13-.02.15-.05.3-.07.46-.01.08-.02.15-.03.23-.05.32-.09.65-.13.97-.03.25-.06.49-.08.74-.02.19-.04.38-.06.57-.02.25-.05.5-.07.76h0c-.06.67-.11,1.32-.16,1.98,0,.08-.01.16-.01.24-.01.11-.02.22-.02.33-.01.13-.02.26-.03.39,0,.14-.01.28-.02.42-.01.12-.02.25-.02.37-.03.44-.05.87-.06,1.3-.06.97-.08,1.95-.08,2.93v34.98l.03-.02h.03s6.11-3.54,6.11-3.54l.2-.11,14.2-8.22h.02l7.47-4.31,4.89-2.82,23.34-13.48c-4.34-3.47-8.36-7.3-11.94-11.55Z"/>
    <path class="cls-9" d="M307.19,170.84l-30.29,17.49,6.17,3.56,70.44,40.67,6.17,3.56,30.31,17.5c13.06,7.55,23.3,18.11,30.31,30.3,13.6,23.61,15.18,53.33,2.03,79.02,26.11-48.11,27.72-108.07-.64-159.26-.45-.84-.91-1.68-1.39-2.51l-.06-.11c-15.33-26.49-43.08-41.3-71.64-41.33-14.07-.02-28.34,3.56-41.41,11.1Z"/>
    <path class="cls-8" d="M389.9,253.62l-30.29-17.49v7.12s0,81.34,0,81.34v7.12s0,35,0,35c0,15.09-4.03,29.23-11.09,41.4-13.65,23.58-38.59,39.81-67.42,41.27,54.72-1.45,107.45-30.03,137.61-80.18.5-.81,1-1.63,1.48-2.46l.06-.11c15.27-26.52,14.23-57.96-.03-82.71-7.02-12.2-17.25-22.76-30.32-30.31Z"/>
    <path class="cls-7" d="M359.66,366.73v-34.98s-6.17,3.56-6.17,3.56l-70.44,40.67-6.17,3.56-30.31,17.5c-13.07,7.54-27.33,11.12-41.4,11.1-27.25-.03-53.77-13.52-69.45-37.75,28.61,46.67,79.73,78.04,138.24,79.08.95.03,1.91.05,2.87.05h.13c30.6-.03,57.31-16.66,71.61-41.38,7.05-12.18,11.09-26.32,11.09-41.41Z"/>
    <path class="cls-4" d="M246.51,398.21l30.29-17.49-6.17-3.56-70.44-40.67-6.17-3.56-30.31-17.5c-13.06-7.55-23.3-18.11-30.31-30.3-13.6-23.61-15.18-53.33-2.03-79.02-26.11,48.11-27.72,108.07.64,159.26.45.84.91,1.68,1.39,2.51l.06.11c15.33,26.49,43.08,41.3,71.64,41.33,14.07.02,28.34-3.56,41.41-11.1Z"/>
    <path class="cls-11" d="M218.69,143.56c-.26-4.42-.21-8.88.2-13.33-33.91,12.65-63.9,36.43-83.94,69.74-.5.81-1,1.63-1.48,2.46l-.06.11c-15.27,26.52-14.23,57.96.03,82.71,7.02,12.2,17.25,22.76,30.32,30.31l30.29,17.49v-7.12s0-81.34,0-81.34v-7.12s0-35,0-35c0-15.09,4.03-29.23,11.09-41.4,3.72-6.43,8.29-12.31,13.54-17.5Z"/>
    <path class="cls-6" d="M420.28,366.45c-2.29,3.97-4.87,7.68-7.68,11.12,1.58-7.16,2.41-14.59,2.41-22.22,0-18.11-4.69-35.13-12.92-49.9-9.77-17.58-24.56-31.99-42.42-41.29v-28.31l30.31,17.5c13.07,7.54,23.29,18.11,30.31,30.31,14.27,24.77,15.31,56.26,0,82.79Z"/>
    <path class="cls-5" d="M389.91,372.34c0,8.93-.87,17.65-2.53,26.09-.74,3.8-1.65,7.54-2.7,11.21-28.97,24.86-66.62,39.88-107.78,39.88,30.61-.03,57.32-16.67,71.62-41.39,7.05-12.18,11.08-26.32,11.08-41.4v-79.51c7.94,9.71,14.54,20.56,19.53,32.25.12.27.23.53.34.8,6.73,16.02,10.44,33.61,10.44,52.07Z"/>
    <path class="cls-10" d="M420.28,366.73c15.32-26.53,14.28-58.01.02-82.78-.01,0-.01-.01-.01-.01-7.02-12.2-17.24-22.77-30.31-30.31l-30.31-17.5-6.17-3.56-42.14-24.33-28.3-16.34-6.17-3.56h-.01s15.53-8.97,15.53-8.97c.47.36.95.71,1.43,1.04,17.34,12.5,38.08,20.54,60.57,22.47.84.09,1.68.15,2.53.19.91.08,1.82.17,2.73.27,28.28,3.14,53.45,16.58,71.69,36.47h0c2.64,2.88,5.13,5.88,7.46,9.01,2.44,11.32,3.73,23.07,3.73,35.12,0,35.58-11.22,68.54-30.32,95.53.13-.54.25-1.08.37-1.62,2.81-3.44,5.39-7.15,7.68-11.12Z"/>
    <path class="cls-13" d="M359.36,331.74v34.99c0,.55-.01,1.09-.02,1.64-.01.86-.04,1.72-.09,2.58-.02.46-.05.93-.08,1.39-.02.3-.04.6-.06.9-.04.41-.07.82-.11,1.23-.06.67-.13,1.34-.21,2.01-.06.52-.12,1.04-.2,1.56-.05.39-.11.78-.17,1.17-.28,1.91-.64,3.8-1.06,5.67-.17.74-.34,1.48-.53,2.21-.01.04-.02.08-.03.12-.17.68-.35,1.36-.54,2.03-.24.87-.5,1.74-.78,2.6-.19.61-.39,1.22-.6,1.82-.37,1.09-.77,2.18-1.2,3.25-.16.42-.33.84-.5,1.25-.23.58-.47,1.15-.72,1.71-.71,1.62-1.47,3.22-2.28,4.78-.3.59-.61,1.17-.93,1.75-.32.58-.64,1.16-.97,1.73-.26.44-.52.89-.79,1.33-.12.19-.24.39-.36.58-.15.25-.3.51-.47.76-.3.49-.61.97-.93,1.45-.13.2-.26.4-.39.6-.46.68-.93,1.35-1.4,2.01-.52.72-1.05,1.44-1.59,2.14-.5.66-1.01,1.31-1.53,1.94-.34.42-.68.83-1.03,1.24-.14.17-.28.34-.43.5-.23.27-.46.54-.7.81-.44.51-.89,1-1.35,1.49-.08.09-.16.18-.24.26-.03.04-.07.08-.11.12-.11.12-.23.25-.36.37-.31.34-.64.68-.97,1.01-.24.25-.49.5-.74.75-.1.1-.21.21-.32.31-.03.04-.07.08-.1.1-.15.15-.3.3-.46.44-.02.03-.04.05-.06.06-.18.17-.36.35-.54.52-.07.07-.13.13-.2.19-.19.18-.38.36-.58.54-.23.21-.45.42-.68.61-.42.39-.85.76-1.28,1.13-.46.4-.92.79-1.39,1.18h0s-.02,0-.02,0c-.01.02-.02.03-.04.04-.05.04-.09.08-.14.11-.01.02-.02.02-.02.02h-.01c-.34.3-.68.57-1.03.84-.03.03-.05.05-.08.06-.31.25-.63.5-.95.74-.44.35-.88.68-1.33,1-.27.21-.54.41-.82.6-.06.06-.12.1-.18.13-.25.19-.51.37-.76.54-.01.02-.03.03-.04.03-.09.07-.18.13-.27.18-.32.23-.65.45-.97.66-.09.07-.18.13-.26.18-.25.17-.51.34-.76.5-.08.06-.15.11-.23.15-.36.24-.72.46-1.08.68-.34.22-.69.43-1.04.64-1.26.77-2.53,1.49-3.83,2.18-.1.05-.2.1-.29.16-.28.14-.57.29-.85.43-.18.1-.36.19-.55.28-.55.28-1.11.55-1.67.82-.2.09-.4.19-.6.28-.88.41-1.78.81-2.68,1.19-.42.18-.84.35-1.26.52-.6.24-1.19.48-1.79.7-.37.14-.75.28-1.13.41-.21.08-.43.16-.65.23-.42.16-.85.3-1.28.44-.43.15-.86.29-1.3.42-.31.1-.63.2-.95.29-.8.25-1.61.47-2.42.69-.25.07-.5.14-.76.2-.38.1-.76.19-1.14.28l-.75.18c-.14.04-.27.07-.41.1-.11.02-.22.05-.33.07-.38.08-.77.17-1.16.25-.16.03-.32.07-.48.1-.3.06-.61.12-.91.17-.07.02-.13.03-.19.04-.35.07-.69.13-1.04.19-.5.08-1.01.17-1.51.24-.27.05-.53.09-.8.12-.19.03-.39.05-.58.08-.46.07-.92.13-1.39.18-.46.06-.92.11-1.39.16-.93.09-1.87.18-2.81.24-.43.03-.87.06-1.3.08-.17.01-.34.02-.51.03-.34.02-.68.03-1.02.04-.48.01-.95.03-1.43.04-.48,0-.95,0-1.43,0h-.13c-.7,0-1.4,0-2.1-.03-.26,0-.51-.01-.76-.02-1.46-.05-2.91-.14-4.35-.27.1.05.2.1.3.14-5.75-.24-11.41-.77-16.99-1.58.78-.37,1.55-.73,2.32-1.11,1.62-.78,3.22-1.59,4.81-2.43,12.73-6.7,24.45-15.03,34.9-24.73,6.46-6,12.44-12.52,17.84-19.49,3.38-4.34,6.53-8.85,9.45-13.52,8.47-13.53,14.99-28.4,19.18-44.21l12.05-6.96,6.18-3.57Z"/>
    <path class="cls-15" d="M281.91,377c-.61.91-1.23,1.81-1.87,2.69-.29.4-.58.8-.87,1.19-4.22,5.71-9.01,10.98-14.28,15.73-9.84,8.87-21.36,15.91-34.02,20.58-4.91,1.82-9.99,3.28-15.21,4.35-6.89,1.42-14.02,2.16-21.33,2.16-2.13,0-4.24-.06-6.33-.2-14.49-9.49-27.4-21.19-38.24-34.63-.29-.36-.58-.72-.87-1.08,16.28,9,34.86,14.35,54.64,14.95,1.24.04,2.49.06,3.74.06,4.86,0,9.66-.29,14.37-.85,13.53-1.6,26.38-5.44,38.16-11.14,6.33-3.05,12.35-6.64,18-10.72,1.35-.96,2.67-1.95,3.97-2.98.05-.03.1-.07.14-.11Z"/>
    <path class="cls-15" d="M415.11,192.88c-.07.03-.15.07-.22.09-.04.02-.07.04-.11.05-.22-.28-.43-.56-.64-.83,0-.01,0-.02-.02-.02-.05-.07-.11-.14-.16-.21-.28-.37-.57-.73-.86-1.1-.29-.36-.58-.71-.88-1.07-.25-.32-.51-.62-.77-.93-.03-.03-.06-.07-.09-.1-.25-.29-.51-.58-.77-.87-.19-.22-.39-.44-.59-.66-.35-.4-.72-.8-1.09-1.19-.12-.13-.24-.26-.36-.38-.15-.15-.29-.31-.44-.46-.15-.15-.29-.31-.44-.45-.02-.02-.03-.03-.05-.05-.03-.03-.05-.06-.08-.08-.3-.31-.61-.62-.92-.92-.09-.1-.19-.19-.29-.28-.04-.04-.09-.09-.13-.13-.4-.4-.81-.78-1.22-1.17-.01-.01-.03-.02-.04-.03-.05-.04-.09-.09-.14-.13-.51-.47-1.02-.93-1.54-1.38-.22-.2-.44-.39-.66-.58-.44-.38-.88-.75-1.32-1.11-.6-.5-1.22-.99-1.83-1.47-.07-.05-.13-.1-.2-.15-.44-.34-.88-.68-1.33-1-.21-.17-.42-.32-.63-.47-.09-.07-.18-.13-.27-.19-.47-.35-.95-.68-1.43-1.01-.08-.05-.15-.11-.23-.16-.37-.26-.75-.51-1.13-.75-.09-.07-.19-.13-.29-.19-.03-.02-.06-.05-.1-.07-.13-.09-.26-.17-.4-.26-.08-.05-.17-.11-.25-.16-.5-.32-1-.63-1.5-.94-.06-.04-.13-.08-.19-.11-.68-.41-1.37-.82-2.06-1.21-.02-.02-.04-.03-.06-.04-.67-.37-1.35-.74-2.03-1.1-.7-.37-1.41-.73-2.12-1.08-.71-.35-1.43-.69-2.15-1.02-1.44-.66-2.9-1.28-4.37-1.85-.74-.28-1.48-.56-2.22-.83-.64-.23-1.29-.45-1.94-.66-.08-.03-.17-.05-.25-.08-.05-.03-.1-.04-.15-.05-.02-.01-.03-.01-.05-.02-.7-.23-1.41-.45-2.12-.65-.75-.23-1.51-.44-2.28-.64-.76-.2-1.52-.39-2.29-.57h0c-.77-.18-1.54-.35-2.31-.51-.78-.15-1.55-.3-2.33-.44-1.56-.28-3.12-.51-4.7-.68-.78-.09-1.57-.17-2.36-.24-.79-.07-1.58-.12-2.37-.17-1.59-.1-3.18-.15-4.77-.15-5.23,0-10.49.49-15.71,1.5-2.02.39-4.04.86-6.04,1.41-6.72,1.83-13.31,4.54-19.62,8.19-.41.24-.83.48-1.24.73-.02.01-.04.02-.06.04-.16.1-.33.2-.49.31-1.19.71-2.35,1.46-3.49,2.25-.57.39-1.13.79-1.69,1.19-.55.37-1.09.78-1.63,1.19-.55.41-1.1.84-1.64,1.27-.12.09-.24.19-.35.28-.89.71-1.76,1.44-2.61,2.18-.05.05-.11.09-.16.14-.04.04-.09.08-.13.11-.46.41-.91.81-1.35,1.23-1.32,1.22-2.6,2.47-3.82,3.77-.47.49-.94.99-1.39,1.49-.48.53-.94,1.06-1.4,1.6-.31.35-.61.71-.91,1.07-.31.37-.61.73-.9,1.11-.25.31-.49.61-.73.93,0,0-.01,0-.01.01-.05.06-.09.12-.14.18l-5.19-3-.47-.27-.5-.29h-.01s-.36-.22-.36-.22c.41-.39.82-.77,1.23-1.15.45-.41.89-.82,1.35-1.22,3.23-2.86,6.62-5.56,10.15-8.06.07-.05.14-.1.21-.15,9.19-6.47,19.33-11.68,30.18-15.35.6-.21,1.21-.41,1.81-.6.28-.1.57-.19.85-.3.02-.01.04-.01.06-.02.09-.03.18-.07.27-.1h.01s.01-.01.01-.01c.72-.25,1.44-.5,2.15-.77.31-.11.63-.23.94-.36.59-.22,1.19-.45,1.78-.69-.35-.11-.71-.22-1.07-.33,5.7-2.21,11.19-4.84,16.43-7.84.06-.04.13-.07.19-.11,5.28-3.02,10.31-6.42,15.06-10.16.36-.28.71-.56,1.06-.84h.01c.14-.12.27-.23.41-.35.01.01.03.01.04.02h0c.19.07.37.15.56.23,5.86,2.33,11.28,5.56,16.07,9.52t.01,0s0,.01.01.01c3.24,2.68,6.19,5.66,8.81,8.94.13.16.25.32.38.48.19.17.38.33.57.5,11.1,9.7,20.88,20.88,29.04,33.22Z"/>
    <path class="cls-19" d="M361.37,140.06c-.13.11-.27.22-.4.33-.02.02-.05.04-.07.05-.14.12-.27.23-.41.35h-.01c-.17.14-.34.27-.51.41-.5.39-1,.79-1.5,1.18-.61.47-1.23.93-1.85,1.39-.65.48-1.31.96-1.97,1.43-.66.48-1.33.94-2,1.4-.39.27-.78.53-1.18.79-.35.24-.7.47-1.06.7-.36.24-.73.47-1.09.7-.3.2-.6.39-.9.57-.64.41-1.29.8-1.95,1.19-.7.42-1.4.84-2.11,1.24-.06.04-.13.07-.19.11-.81.46-1.62.92-2.44,1.36-.09.05-.17.09-.26.14-.61.33-1.22.65-1.84.97-.03.01-.05.03-.08.04-.33.18-.67.34-1,.51-1.42.72-2.85,1.41-4.3,2.07-.35.16-.7.32-1.06.48-.23.1-.45.2-.68.3-1.23.53-2.46,1.05-3.7,1.55-.35-.11-.71-.22-1.07-.33-7.49-2.24-15.42-3.44-23.64-3.44-3.39,0-6.73.2-10.01.61.07-.09.16-.19.25-.28,15.59-.19,30.13-4.71,42.48-12.42,3.24-2.01,6.32-4.25,9.24-6.69.68-.56,1.35-1.14,2.01-1.73.13-.12.27-.24.4-.36,1.31-1.18,2.59-2.4,3.81-3.67.25.31.5.62.77.92.19.23.39.46.59.69.43.51.88,1,1.34,1.49.25.28.51.55.78.82.72.75,1.46,1.49,2.23,2.2.3.29.62.57.93.85.31.28.63.56.95.83.24.2.47.41.71.6.12.1.24.2.36.3h.01c.14.12.28.24.42.35Z"/>
    <path class="cls-20" d="M325.97,158.98c.2.06.4.12.59.18-.59.24-1.19.47-1.78.69-.31.13-.63.25-.94.36-.51.19-1.03.38-1.55.56-.2.07-.4.14-.6.21h-.02c-.09.04-.18.08-.27.11-.02.01-.04.01-.06.02-.28.11-.57.2-.85.3-.6.19-1.21.39-1.81.6-10.85,3.67-20.99,8.88-30.18,15.35l-.21.15c-3.53,2.5-6.92,5.2-10.15,8.06-.46.4-.9.81-1.35,1.22-.18.17-.36.33-.54.51h0s-.01,0-.01,0c0,0-.01.01-.02.01,0,.01-.02.02-.02.02-.07.06-.13.12-.2.19h-.01s-.11.1-.16.16c-.09.08-.18.16-.27.25-.08.07-.16.14-.23.21l-.27-.16-24.47-14.13c.59-.71,1.22-1.41,1.91-2.08.01-.01.02-.02.03-.02.35-.27.7-.52,1.06-.78,2.25-1.63,4.6-3.15,7.02-4.55,2.41-1.4,4.9-2.68,7.46-3.82,1.09-.5,2.19-.96,3.3-1.4.26-.11.51-.21.77-.3.03-.02.06-.03.1-.03,6.2-2.4,12.77-4.06,19.6-4.88,3.28-.41,6.62-.61,10.01-.61,8.22,0,16.15,1.2,23.64,3.44.16.05.32.1.48.15Z"/>
  </g>
  <g id="Layer_7" data-name="Layer 7">
    <path class="cls-22" d="M361.53,113.2c-.11,5.93-.45,11.85-1.38,17.69,53.81,29.57,90.28,86.78,90.28,152.51,0,96.05-77.86,173.91-173.91,173.91s-173.91-77.86-173.91-173.91c0-71.46,43.12-132.84,104.74-159.59-.79-5.66-1.24-11.36-1.45-17.07-70.08,28.04-119.6,96.56-119.6,176.66,0,105.06,85.17,190.22,190.22,190.22s190.22-85.17,190.22-190.22c0-74.5-42.84-138.99-105.21-170.2Z"/>
  </g>
  <g id="Layer_4" data-name="Layer 4">
    <path class="cls-12" d="M353.1,130.97c-15.61,8.71-28.77,11.15-37.99,11.74-27.27,1.73-41.04-11.42-65.23-4.04-6.51,1.99-17.38,5.3-21.12,14.29-6.43,15.45,12.88,36.44,22.65,44.73,11.21,9.51,22.58,13.07,27.56,14.37,9.42,2.46,16.06-1.3,29.94,1.17,8.88,1.58,14.42,4.89,14.79,4.11.39-.82-5.71-4.37-24.11-15.91-9.06-5.68-8.66-5.5-9.29-5.86-7.52-4.21-10.71-4.77-13.25-8.28-2.02-2.8-3.33-6.75-2.62-10.09.6-2.81,3-7.55,17.4-12.43,15.96-5.4,20.91-2.24,35.46-5.54,15.63-3.54,33.95-12.64,33.42-20.45-.21-3.12-3.4-5.7-7.59-7.8Z"/>
  </g>
  <g id="Layer_8" data-name="Layer 8">
    <path class="cls-2" d="M222.13,109.83c-.21-.11-.42-.23-.63-.35"/>
    <path class="cls-2" d="M303.7,97.55l-.81.06c-3.15.22-5.79.04-7.74-.2-2.61-.32-4.37-.53-6.06-1.19"/>
    <path class="cls-2" d="M289.1,96.21s-.01,0-.01.01"/>
    <path class="cls-3" d="M352.67,127.63c-.63.95-1.98,2.57-5.52,4.3-.01,0-.02.02-.02.02-.02,0-.03,0-.05.02-1.11.55-2.43,1.1-4.02,1.65-1.1.39-2.34.77-3.72,1.15-2.72.74-6.01,1.45-9.97,2.09-8.56,1.38-19.8.68-42.21-1.57-9.67-.97-19.39-1.34-29.07-2.19,0,0-1.99-.17-5.11-.07h-.05c-4.16.13-10.3.75-16.41,2.89-2.8.98-6.61,2.68-7.19,5.63-.34,1.7.49,3.33,0,3.6-.66.36-2.78-1.59-4.07-3.92-.48-.86-.79-1.71-.99-2.64-.01-.02-.01-.04-.02-.06-.41-1.92-.35-4.2-.25-7.57.03-.94.06-1.79.09-2.6.14-3.34.39-5.71,1.42-8.59.88-2.47,2.76-6.51,2.76-6.51-.01,0-.01-.01-.02-.01-.22-.07-2.03-.7-3.5-1.49-1.57-.85-1.73-1.35-2.6-1.91-.01-.01-.02-.01-.02-.02-.18-.11-.38-.22-.63-.35-.04-.02-.09-.04-.13-.06-1.08-.51-2.33-1.1-3.61-.7-1.2.37-1.77,1.47-2.82,3.13-1.62,2.56-1.59,4.34-2.18,4.37-.89.05-2.31-3.8-2.5-7.89-.09-1.8-.47-9.72,4.68-14.3,2.87-2.56,7.81-5.95,12.52-4.69.02,0,1.05.36,1.05.36h0s.52-1.76,1.47-2.93c1.04-1.3,1.86-.99,2.57-2.01.62-.88.62-2,.28-3.72-.05-.14-.08-.28-.09-.44-.78-3.6-2.14-5.04-2.64-6.87-1-3.72,1.95-7.54,3.96-10.15,2.1-2.7,7.29-8.47,22.01-13.79,5.59-2.02,13.77-4.9,25.18-5.61,6.99-.43,20.92-1.29,36.1,5.69,2.26,1.04,21.83,10.24,31.74,30.6.93,1.91,1.78,3.93,2.52,6.04.24.68.46,1.35.65,2.02,2.56,8.29,2.76,15.73,2.9,21.3.24,8.96.3,13.58-2.49,17.8Z"/>
  </g>
  <g id="Layer_5" data-name="Layer 5">
    <path class="cls-18" d="M237.76,102.19c-.53,1.18-1.2,2.49-2.07,3.86-1.25,1.98-2.03,3.25-3.48,4.52,0,0-.44.38-3.94,2.7-.01,0-.01,0-.02,0-.22-.07-2.03-.7-3.5-1.49-1.57-.85-1.73-1.35-2.6-1.91-.01-.01-.02-.01-.02-.02-.18-.11-.38-.22-.63-.35-.04-.02-.09-.04-.13-.06-1.08-.51-2.33-1.1-3.61-.7-1.2.37-1.77,1.47-2.82,3.13-1.62,2.56-1.59,4.34-2.18,4.37-.89.05-2.31-3.8-2.5-7.89-.09-1.8-.47-9.72,4.68-14.3,2.87-2.56,7.81-5.95,12.52-4.69-1.96.3-3.43.89-4.45,1.4-2.9,1.46-5.55,4.05-5.55,4.05,0,0-1.5,1.88-3.94,10.24.62-.25,1.61-.6,2.88-.8,1.53-.26,3.06-.24,7.03.37,3.7.57,3.44.72,4.33.75,4.62.14,8.62-4.37,8.68-4.43,0,0,.07.02,1.32,1.26Z"/>
    <path class="cls-17" d="M352.26,88.54c-.01.61-.17,1.13-.51,1.53-1.05,1.23-3.44.79-4.95.5-5.08-.97-5.63-3.9-10.91-5.53-3.57-1.1-6.68-.54-7.6-.36-5.02.95-5.79,3.82-10.67,6.45-4.26,2.29-8.93,2.36-18.26,2.49-6.83.1-9.36-.68-11.4-1.95-2.43-1.5-2.66-2.73-4.78-4.8-4.31-4.21-11.38-6.91-17.53-6.12-6.12.79-12.22,5.14-14.46,6.75-2.62,1.86-5.98,4.71-8.95,3.63-.84-.31-1.35-.81-1.84-1.31-3.23-3.27-7.02-7.1-7.57-8.77-.05-.14-.08-.28-.09-.44-.78-3.6-2.14-5.04-2.64-6.87-1-3.72,1.95-7.54,3.96-10.15,2.1-2.7,7.29-8.47,22.01-13.79,5.59-2.02,13.77-4.9,25.18-5.61,6.99-.43,20.92-1.29,36.1,5.69,2.26,1.04,21.83,10.24,31.74,30.6.93,1.91,1.78,3.93,2.52,6.04.24.68.46,1.35.65,2.02Z"/>
    <path class="cls-2" d="M352.67,127.64c-.63.96-2,2.59-5.59,4.34-1.11.55-2.43,1.1-4.02,1.65-1.1.39-2.34.77-3.72,1.15-2.72.74-6.01,1.45-9.97,2.09-8.56,1.38-19.8.68-42.21-1.57-9.67-.97-19.39-1.34-29.07-2.19,0,0-1.99-.17-5.11-.07h-.05c-4.16.13-10.3.75-16.41,2.89-2.8.98-6.61,2.68-7.19,5.63-.34,1.7.49,3.33,0,3.6-.66.36-2.78-1.59-4.07-3.92-.48-.86-.79-1.71-.99-2.64-.01-.02-.01-.04-.02-.06-.41-1.92-.35-4.2-.25-7.57.03-.94.06-1.79.09-2.6.14-3.34.39-5.71,1.42-8.59.88-2.47,2.76-6.51,2.76-6.51,3.5-2.32,3.94-2.7,3.94-2.7,1.45-1.27,2.23-2.54,3.48-4.52.87-1.37,1.54-2.68,2.07-3.86-1.25-1.24-1.32-1.26-1.32-1.26-.06.06-4.06,4.57-8.68,4.43-.89-.03-.63-.18-4.33-.75-3.97-.61-5.5-.63-7.03-.37-1.27.2-2.26.55-2.88.8,2.44-8.36,3.94-10.24,3.94-10.24,0,0,2.65-2.59,5.55-4.05,1.02-.51,2.49-1.1,4.45-1.4.02,0,1.05.36,1.05.36h0s.52-1.76,1.47-2.93c1.04-1.3,1.86-.99,2.57-2.01.62-.88.62-2,.28-3.72.55,1.67,4.34,5.5,7.57,8.77.49.5,1,1,1.84,1.31,2.97,1.08,6.33-1.77,8.95-3.63,2.24-1.61,8.34-5.96,14.46-6.75,6.15-.79,13.22,1.91,17.53,6.12,2.12,2.07,2.35,3.3,4.78,4.8,2.04,1.27,4.57,2.05,11.4,1.95,9.33-.13,14-.2,18.26-2.49,4.88-2.63,5.65-5.5,10.67-6.45.92-.18,4.03-.74,7.6.36,5.28,1.63,5.83,4.56,10.91,5.53,1.51.29,3.9.73,4.95-.5.34-.4.5-.92.51-1.53,2.56,8.29,2.76,15.73,2.9,21.3.24,8.96.3,13.58-2.49,17.8Z"/>
    <path class="cls-14" d="M228.51,90.27c-.36.83-.65,1.52-.73,2.52-.03.35-.24,3.1,1.44,4.55,1.01.87,1.6.33,4.38,1.44,1.02.41,1.64.66,2.39,1.16.53.36.85.7,1.4,1.27.74.76,1.33,1.47,2.31,2.67.83,1.01,1.47,1.79,2.25,1.73.03,0,.06,0,.08-.01.9-.23,1.28-2.21,1.16-3.72-.15-2-1.19-3.43-1.55-3.94-2.78-3.92-2.68-5.36-3.77-7.43-.19-.37-.6-1.08-1.22-1.88-1.26-1.63-2.6-3.36-4.11-3.29-1.94.09-3.26,3.12-4.04,4.93Z"/>
    <path class="cls-2" d="M222.13,109.84c-.21-.11-.42-.23-.63-.35"/>
    <path class="cls-2" d="M257.87,86.5c1.52-1.08,4.58-2.9,8.76-3.17,4.71-.31,9.48,1.44,12.54,4.35.99.95,1.26,1.35,3.19,3.41,1.55,1.64,3.14,3.22,5.17,4.38,2.25,1.29,4.2,1.53,7.61,1.94,2.11.26,5.03.45,8.55.14"/>
    <path class="cls-18" d="M249.16,94.49c.9-.36,1.65-.43,2.13-.42,2.03,0,3.61,1.17,4.23,1.63.11.08.17.13.17.13-.21-1.37-.11-2.48,0-3.2.3-1.87,1.23-4.38,2.39-5.46.12-.11.56-.5.47-.66-.08-.14-.52-.04-.67,0-2.7.64-5.24,3.32-5.24,3.32-.98,1.04-2.27,2.57-3.47,4.67Z"/>
    <path class="cls-2" d="M255.51,95.69c.34.25.85.64,1.41,1.19,2.02,1.97,2.29,3.43,3.22,4.73,1.68,2.36,5.37,2.44,8.08,2.5,2.53.05,4.64-.48,7.81-1.64,3.34-1.22,7.88-3.16,13.07-6.24"/>
    <ellipse class="cls-18" cx="271.3" cy="91.89" rx="7.84" ry="10.18" transform="translate(72.6 298.21) rotate(-64.79)"/>
    <circle class="cls-16" cx="275.34" cy="89.82" r=".75"/>
    <path class="cls-18" d="M257.87,103.31c1.49,1.23,3.7,2.68,6.61,3.27,4.25.86,7.62-.59,7.82,0,.24.7-4.87,1.98-9.66,6.15-4.44,3.87-7.94,9.66-8.79,14.66,0,0-.04.23-.87,5.65-1.41,0-2.82,0-4.23,0-2.4-5.54-2.52-5.87-2.67-6.32-1.34-3.95-1.11-7.84-.7-9.93,1.67-8.7,11.36-12.99,12.49-13.48Z"/>
    <path class="cls-18" d="M311.93,96.36c1.23,1.62-1.81,4.36-4.87,12.01-3.46,8.65-3.16,13.75-2.75,15.56.1.43,1.02,4.27,1.02,4.27,0,0-4.53-.96-8.65-1.22-1.55-.1-5.89-.34-10.98.81-1.78.4-5.61,1.42-5.61,1.42,0,0-1.06-1.76-1.06-1.76,0,0,3.36-.82,3.62-.88,2.79-.69,6.61-3.56,9.05-7.02,3.86-5.47.97-7.72,4.68-14.54,1.09-2,3.69-6.66,8.85-8.54.42-.15,5.34-1.91,6.7-.11Z"/>
    <path class="cls-23" d="M314.58,98.76c-2.45,2.11-3.63,4.68-4.53,6.67-1.15,2.51-1.57,4.46-2.17,7.26-.8,3.7-1.4,6.39-1.08,9.93.25,2.82.96,5.09,1.54,6.59,5.52-.17,9.49.82,12.15,1.78,3.32,1.21,6.96,1.54,10.18,3,.58.26,2.04.95,3.17.34,0,0,.54-.29,1.97-2.82-.21,0-.52-.04-.86-.17-2.58-1.01-2.69-6.27-2.73-7.96-.04-1.75-.24-10.57,6.75-17.03,3.12-2.88,6.52-4.22,8.9-4.88,0,0,0,0,0,0,.15-1.55.51-3.78.51-3.78-2.49-.48-4.29-1.35-5.56-2.16-2.57-1.63-3.02-3.04-5.65-4.59-1.43-.84-3.28-1.93-5.48-1.89-3.72.06-4.4,3.19-10.61,6.48-3.64,1.93-4.36,1.35-6.5,3.2Z"/>
    <path class="cls-21" d="M349.37,102.88c-.69-.1-1.02.33-2.66,1.23-2.4,1.32-2.98,1.1-4.63,2.01-.66.37-2.8,1.58-4.17,3.82-1.09,1.79-1.08,3.18-1.5,7.87-.34,3.7-.51,3.98-.51,4.46-.01.83-.01,3.51.98,6.95.97,3.36,1.45,5.04,2.47,5.55,4.08,2.04,14.05-8.35,14.05-8.35,0,0,.8-5.01.62-10.11-.03-.77-.18-4.46-1.66-8.9-1.25-3.74-2.24-4.42-2.97-4.52Z"/>
    <path class="cls-2" d="M311.93,96.36c1.33.19,3.23.25,5.21-.54,1.9-.76,2.95-1.7,4.2-3.2,1.3-1.56,5-4.98,9.31-5.64,3.57-.55,6.55.91,7.37,1.33,3.14,1.58,3.56,3.49,6.93,5.36,2.22,1.23,4.34,1.69,5.8,1.88"/>
  </g>
</svg>